<mxfile host="app.diagrams.net" modified="2023-04-08T00:36:06.529Z" agent="Mozilla/5.0 (Macintosh; Intel Mac OS X 10_15_7) AppleWebKit/605.1.15 (KHTML, like Gecko) Version/16.3 Safari/605.1.15" etag="i_Hfa00SJ8foYhIwlbJC" version="21.1.5" type="github">
  <diagram name="Page-1" id="t4Jn5vpzDotKNJ8F9sPx">
    <mxGraphModel dx="954" dy="650" grid="1" gridSize="10" guides="1" tooltips="1" connect="1" arrows="1" fold="1" page="1" pageScale="1" pageWidth="850" pageHeight="1100" math="0" shadow="0">
      <root>
        <mxCell id="0" />
        <mxCell id="1" parent="0" />
        <mxCell id="MkvONx4qWWmUhPcdUcCU-4" style="edgeStyle=orthogonalEdgeStyle;rounded=0;orthogonalLoop=1;jettySize=auto;html=1;entryX=0;entryY=0.5;entryDx=0;entryDy=0;entryPerimeter=0;" edge="1" parent="1" source="MkvONx4qWWmUhPcdUcCU-2" target="MkvONx4qWWmUhPcdUcCU-15">
          <mxGeometry relative="1" as="geometry">
            <mxPoint x="300" y="148.5" as="targetPoint" />
          </mxGeometry>
        </mxCell>
        <mxCell id="MkvONx4qWWmUhPcdUcCU-2" value="" style="sketch=0;pointerEvents=1;shadow=0;dashed=0;html=1;strokeColor=none;labelPosition=center;verticalLabelPosition=bottom;verticalAlign=top;align=center;fillColor=#505050;shape=mxgraph.mscae.intune.user_group" vertex="1" parent="1">
          <mxGeometry x="110" y="131.75" width="50" height="37" as="geometry" />
        </mxCell>
        <mxCell id="MkvONx4qWWmUhPcdUcCU-18" style="edgeStyle=orthogonalEdgeStyle;rounded=0;orthogonalLoop=1;jettySize=auto;html=1;" edge="1" parent="1" source="MkvONx4qWWmUhPcdUcCU-3" target="MkvONx4qWWmUhPcdUcCU-17">
          <mxGeometry relative="1" as="geometry" />
        </mxCell>
        <mxCell id="MkvONx4qWWmUhPcdUcCU-3" value="" style="sketch=0;points=[[0,0,0],[0.25,0,0],[0.5,0,0],[0.75,0,0],[1,0,0],[0,1,0],[0.25,1,0],[0.5,1,0],[0.75,1,0],[1,1,0],[0,0.25,0],[0,0.5,0],[0,0.75,0],[1,0.25,0],[1,0.5,0],[1,0.75,0]];outlineConnect=0;fontColor=#232F3E;gradientColor=#F78E04;gradientDirection=north;fillColor=#D05C17;strokeColor=#ffffff;dashed=0;verticalLabelPosition=bottom;verticalAlign=top;align=center;html=1;fontSize=12;fontStyle=0;aspect=fixed;shape=mxgraph.aws4.resourceIcon;resIcon=mxgraph.aws4.eks;" vertex="1" parent="1">
          <mxGeometry x="490" y="121.5" width="57.5" height="57.5" as="geometry" />
        </mxCell>
        <mxCell id="MkvONx4qWWmUhPcdUcCU-8" style="edgeStyle=orthogonalEdgeStyle;rounded=0;orthogonalLoop=1;jettySize=auto;html=1;entryX=0;entryY=0.5;entryDx=0;entryDy=0;entryPerimeter=0;exitX=1;exitY=0.5;exitDx=0;exitDy=0;exitPerimeter=0;" edge="1" parent="1" source="MkvONx4qWWmUhPcdUcCU-15" target="MkvONx4qWWmUhPcdUcCU-3">
          <mxGeometry relative="1" as="geometry">
            <mxPoint x="390" y="200" as="sourcePoint" />
          </mxGeometry>
        </mxCell>
        <mxCell id="MkvONx4qWWmUhPcdUcCU-16" value="" style="group" vertex="1" connectable="0" parent="1">
          <mxGeometry x="300" y="102" width="76" height="78.5" as="geometry" />
        </mxCell>
        <mxCell id="MkvONx4qWWmUhPcdUcCU-15" value="" style="sketch=0;points=[[0,0,0],[0.25,0,0],[0.5,0,0],[0.75,0,0],[1,0,0],[0,1,0],[0.25,1,0],[0.5,1,0],[0.75,1,0],[1,1,0],[0,0.25,0],[0,0.5,0],[0,0.75,0],[1,0.25,0],[1,0.5,0],[1,0.75,0]];outlineConnect=0;fontColor=#232F3E;gradientColor=#60A337;gradientDirection=north;fillColor=#177162;strokeColor=#ffffff;dashed=0;verticalLabelPosition=bottom;verticalAlign=top;align=center;html=1;fontSize=12;fontStyle=0;aspect=fixed;shape=mxgraph.aws4.resourceIcon;resIcon=mxgraph.aws4.s3;" vertex="1" parent="MkvONx4qWWmUhPcdUcCU-16">
          <mxGeometry y="18" width="60.5" height="60.5" as="geometry" />
        </mxCell>
        <mxCell id="MkvONx4qWWmUhPcdUcCU-13" value="" style="shape=image;html=1;verticalAlign=top;verticalLabelPosition=bottom;labelBackgroundColor=#ffffff;imageAspect=0;aspect=fixed;image=https://cdn1.iconfinder.com/data/icons/unicons-line-vol-5/24/react-128.png" vertex="1" parent="MkvONx4qWWmUhPcdUcCU-16">
          <mxGeometry x="41" width="35" height="35" as="geometry" />
        </mxCell>
        <mxCell id="MkvONx4qWWmUhPcdUcCU-17" value="" style="sketch=0;outlineConnect=0;fontColor=#232F3E;gradientColor=none;fillColor=#3675AD;strokeColor=none;dashed=0;verticalLabelPosition=bottom;verticalAlign=top;align=center;html=1;fontSize=12;fontStyle=0;aspect=fixed;pointerEvents=1;shape=mxgraph.aws4.elasticache_for_redis;" vertex="1" parent="1">
          <mxGeometry x="640" y="116" width="78" height="69" as="geometry" />
        </mxCell>
      </root>
    </mxGraphModel>
  </diagram>
</mxfile>
